<?xml version="1.0" standalone="no"?>
<!DOCTYPE svg PUBLIC "-//W3C//DTD SVG 20010904//EN"
 "http://www.w3.org/TR/2001/REC-SVG-20010904/DTD/svg10.dtd">
<svg version="1.0" xmlns="http://www.w3.org/2000/svg"
 width="512.000000pt" height="512.000000pt" viewBox="0 0 512.000000 512.000000"
 preserveAspectRatio="xMidYMid meet">
<metadata>
Created by potrace 1.14, written by Peter Selinger 2001-2017
</metadata>
<g transform="translate(0.000000,512.000000) scale(0.100000,-0.100000)"
fill="#000000" stroke="none">
<path d="M2200 5102 c-19 -11 -45 -37 -57 -58 l-22 -39 -1 -695 0 -695 147 0
c169 0 253 -13 408 -61 206 -65 380 -169 530 -319 148 -147 246 -292 312 -460
71 -178 96 -311 97 -507 l0 -148 696 0 c658 0 697 1 730 19 70 37 75 54 74
229 -2 449 -143 937 -394 1362 -210 358 -538 698 -890 924 -41 27 -86 56 -100
65 -40 28 -320 166 -385 191 -33 12 -73 28 -90 35 -84 36 -371 113 -485 130
-25 4 -54 9 -65 11 -11 2 -40 6 -65 9 -25 3 -58 7 -75 10 -16 2 -97 7 -180 10
-135 5 -153 4 -185 -13z"/>
<path d="M1539 3854 c-526 -119 -939 -405 -1233 -854 -85 -130 -215 -424 -241
-549 -2 -9 -11 -50 -20 -91 -41 -192 -55 -514 -27 -665 6 -33 14 -80 17 -105
4 -25 15 -77 26 -117 11 -40 22 -80 24 -90 10 -42 67 -185 108 -273 153 -323
429 -629 739 -822 187 -116 483 -231 658 -255 19 -3 71 -11 114 -18 92 -14
360 -17 461 -4 462 58 849 244 1164 559 268 269 444 593 526 966 27 123 23
168 -17 211 -52 56 3 53 -1057 53 l-981 0 -2 989 c-3 988 -3 990 -24 1018 -26
34 -69 60 -109 65 -16 2 -73 -6 -126 -18z"/>
<path d="M2133 3303 l-23 -4 0 -595 0 -594 594 0 594 0 5 25 c9 52 8 214 -3
281 -73 441 -402 782 -845 876 -50 10 -279 18 -322 11z"/>
</g>
</svg>
